<?xml version="1.0" encoding="UTF-8" standalone="no"?>
<svg viewBox="0 1 40 40">
<path id="path5" fill="#00dfc0" d="m31.729 1h-4.192c-3.429 0-6.355 2.0305-7.565 4.9746h3.7321c0.908-1.0152 2.219-1.7259 3.732-1.7259h4.1917c2.7234 0 4.8417 2.2335 4.8417 4.8731v23.553c0 2.7411-2.2191 4.8731-4.8417 4.8731h-23.558c-2.7234 0-4.8417-2.2335-4.8417-4.8731v-3.4518c0-1.8274 0.90782-3.4518 2.32-4.264v-3.5533c-3.2283 1.015-5.5483 4.163-5.5483 7.919v3.452c0 4.467 3.6313 8.223 8.1703 8.223h23.66c4.438 0 8.17-3.655 8.17-8.223v-23.554c-0.101-4.5682-3.732-8.223-8.271-8.223z"/>
<path id="path9" d="m29.05 19.173c0 2.2335-0.50434 4.264-1.4122 5.9898-0.90782 1.7259-2.32 3.0457-4.0347 3.9594-1.7148 0.9137-3.7321 1.4213-6.0521 1.4213h-9.179v-22.234h9.0782c7.7669 0 11.6 3.6548 11.6 10.863zm-7.0608 0c0-1.1168-0.20174-2.0305-0.60521-2.9442-0.40347-0.91371-1.0087-1.5228-1.8156-2.0305-0.80695-0.50761-1.7148-0.71066-2.8243-0.71066h-1.7148v11.675h1.8156c1.6139 0 2.8243-0.50761 3.833-1.6244 0.90782-1.0152 1.3113-2.5381 1.3113-4.3655z" fill="#2a454e"/>

</svg>
