<?xml version="1.0" encoding="iso-8859-1"?>
<!-- Generator: Adobe Illustrator 19.0.0, SVG Export Plug-In . SVG Version: 6.00 Build 0)  -->
<svg version="1.1" id="Capa_1" xmlns="http://www.w3.org/2000/svg" xmlns:xlink="http://www.w3.org/1999/xlink" x="0px" y="0px"
	 viewBox="0 0 512 512" style="enable-background:new 0 0 512 512;" xml:space="preserve">
<g>
	<g>
		<path d="M256,38.4c-117.632,0-213.333,95.701-213.333,213.333S138.368,465.067,256,465.067s213.333-95.701,213.333-213.333
			S373.632,38.4,256,38.4z M256,448c-108.22,0-196.267-88.038-196.267-196.267S147.78,55.467,256,55.467
			s196.267,88.038,196.267,196.267S364.22,448,256,448z"/>
	</g>
</g>
<g>
	<g>
		<path d="M256,72.533c-4.71,0-8.533,3.814-8.533,8.533v25.6c0,4.719,3.823,8.533,8.533,8.533s8.533-3.814,8.533-8.533v-25.6
			C264.533,76.348,260.71,72.533,256,72.533z"/>
	</g>
</g>
<g>
	<g>
		<path d="M256,388.267c-4.71,0-8.533,3.814-8.533,8.533v25.6c0,4.719,3.823,8.533,8.533,8.533s8.533-3.814,8.533-8.533v-25.6
			C264.533,392.081,260.71,388.267,256,388.267z"/>
	</g>
</g>
<g>
	<g>
		<path d="M426.667,243.2h-25.6c-4.71,0-8.533,3.814-8.533,8.533c0,4.719,3.823,8.533,8.533,8.533h25.6
			c4.71,0,8.533-3.814,8.533-8.533C435.2,247.014,431.377,243.2,426.667,243.2z"/>
	</g>
</g>
<g>
	<g>
		<path d="M110.933,243.2h-25.6c-4.71,0-8.533,3.814-8.533,8.533c0,4.719,3.823,8.533,8.533,8.533h25.6
			c4.71,0,8.533-3.814,8.533-8.533C119.467,247.014,115.644,243.2,110.933,243.2z"/>
	</g>
</g>
<g>
	<g>
		<path d="M256,217.6c-18.825,0-34.133,15.309-34.133,34.133s15.309,34.133,34.133,34.133c18.825,0,34.133-15.309,34.133-34.133
			S274.825,217.6,256,217.6z M256,268.8c-9.412,0-17.067-7.654-17.067-17.067c0-9.412,7.654-17.067,17.067-17.067
			c9.412,0,17.067,7.654,17.067,17.067C273.067,261.146,265.412,268.8,256,268.8z"/>
	</g>
</g>
<g>
	<g>
		<path d="M256,140.8c-4.71,0-8.533,3.814-8.533,8.533v76.8c0,4.719,3.823,8.533,8.533,8.533s8.533-3.814,8.533-8.533v-76.8
			C264.533,144.614,260.71,140.8,256,140.8z"/>
	</g>
</g>
<g>
	<g>
		<path d="M324.267,243.2H281.6c-4.71,0-8.533,3.814-8.533,8.533c0,4.719,3.823,8.533,8.533,8.533h42.667
			c4.71,0,8.533-3.814,8.533-8.533C332.8,247.014,328.977,243.2,324.267,243.2z"/>
	</g>
</g>
<g>
	<g>
		<path d="M159.454,143.121l-16.887-16.888c-3.337-3.336-8.73-3.336-12.066,0c-3.336,3.337-3.336,8.73,0,12.066l16.888,16.887
			c1.664,1.664,3.849,2.5,6.033,2.5c2.185,0,4.369-0.828,6.033-2.5C162.79,151.851,162.79,146.458,159.454,143.121z"/>
	</g>
</g>
<g>
	<g>
		<path d="M381.5,365.167l-16.887-16.887c-3.337-3.337-8.73-3.337-12.066,0s-3.337,8.73,0,12.066l16.887,16.888
			c1.664,1.664,3.849,2.5,6.033,2.5c2.185,0,4.369-0.836,6.033-2.5C384.836,373.897,384.836,368.503,381.5,365.167z"/>
	</g>
</g>
<g>
	<g>
		<path d="M381.5,126.234c-3.337-3.336-8.73-3.336-12.066,0l-16.887,16.888c-3.337,3.336-3.337,8.73,0,12.066
			c1.664,1.664,3.849,2.5,6.033,2.5c2.176,0,4.361-0.828,6.033-2.5L381.5,138.3C384.836,134.963,384.836,129.57,381.5,126.234z"/>
	</g>
</g>
<g>
	<g>
		<path d="M159.454,348.279c-3.336-3.337-8.73-3.337-12.066,0L130.5,365.167c-3.337,3.337-3.337,8.73,0,12.066
			c1.664,1.664,3.849,2.5,6.033,2.5c2.185,0,4.369-0.836,6.033-2.5l16.887-16.888C162.79,357.009,162.79,351.616,159.454,348.279z"
			/>
	</g>
</g>
<g>
	<g>
		<path d="M256,4.267C119.543,4.267,8.533,115.285,8.533,251.733S119.543,499.2,256,499.2s247.467-111.019,247.467-247.467
			S392.457,4.267,256,4.267z M256,482.133c-127.044,0-230.4-103.356-230.4-230.4s103.356-230.4,230.4-230.4
			s230.4,103.356,230.4,230.4S383.044,482.133,256,482.133z"/>
	</g>
</g>
<g>
	<g>
		<path d="M426.667,12.8c-22.468,0-43.699,8.695-59.767,24.457l-8.107,7.97l9.907,5.564c43.964,24.713,79.121,63.761,99.004,109.952
			l4.497,10.453l8.781-7.245C500.693,147.669,512,123.674,512,98.133C512,51.081,473.719,12.8,426.667,12.8z M478.242,142.857
			c-20.198-41.088-51.84-76.22-90.667-100.676c11.392-7.996,24.934-12.314,39.091-12.314c37.641,0,68.267,30.626,68.267,68.267
			C494.933,114.739,488.951,130.526,478.242,142.857z"/>
	</g>
</g>
<g>
	<g>
		<path d="M145.101,37.265C129.033,21.495,107.802,12.8,85.333,12.8C38.281,12.8,0,51.081,0,98.133
			c0,25.532,11.307,49.527,31.019,65.809l8.772,7.253l4.497-10.445C64.179,114.551,99.337,75.511,143.3,50.799l9.907-5.564
			L145.101,37.265z M33.749,142.857c-10.709-12.331-16.683-28.117-16.683-44.723c0-37.641,30.626-68.267,68.267-68.267
			c14.157,0,27.691,4.318,39.083,12.314C85.598,66.628,53.956,101.777,33.749,142.857z"/>
	</g>
</g>
<g>
	<g>
		<path d="M123.443,443.896c-0.196-2.483-1.459-4.753-3.464-6.229c-9.737-7.125-18.876-14.967-27.17-23.287
			c-1.596-1.613-3.772-2.509-6.033-2.509c-0.009,0-0.009,0-0.009,0c-2.261,0-4.429,0.896-6.033,2.5L33.51,461.585
			c-10.539,10.539-10.539,27.691,0,38.229c5.274,5.265,12.194,7.91,19.115,7.91c6.929,0,13.85-2.645,19.115-7.91l49.229-49.237
			C122.735,448.819,123.639,446.379,123.443,443.896z M59.682,487.748c-3.883,3.883-10.206,3.883-14.097,0
			c-3.891-3.891-3.891-10.206,0-14.097l41.293-41.284c4.83,4.514,9.89,8.875,15.138,13.039L59.682,487.748z"/>
	</g>
</g>
<g>
	<g>
		<path d="M478.481,461.585l-47.223-47.215c-1.596-1.604-3.772-2.5-6.033-2.5c-0.009,0-0.009,0-0.009,0
			c-2.261,0-4.429,0.904-6.033,2.509c-8.303,8.32-17.442,16.154-27.179,23.287c-2.014,1.468-3.277,3.746-3.465,6.229
			s0.708,4.924,2.475,6.682l49.237,49.237c5.103,5.112,11.895,7.919,19.115,7.919c7.219,0,14.012-2.807,19.115-7.919
			C489.02,489.276,489.02,472.124,478.481,461.585z M466.406,487.748c-3.755,3.763-10.317,3.763-14.089,0l-42.334-42.334
			c5.248-4.173,10.308-8.533,15.138-13.047l41.284,41.284C470.298,477.542,470.298,483.857,466.406,487.748z"/>
	</g>
</g>
<g>
</g>
<g>
</g>
<g>
</g>
<g>
</g>
<g>
</g>
<g>
</g>
<g>
</g>
<g>
</g>
<g>
</g>
<g>
</g>
<g>
</g>
<g>
</g>
<g>
</g>
<g>
</g>
<g>
</g>
</svg>
